<?xml version="1.0" encoding="UTF-8"?>
<svg width="88px" height="82px" viewBox="0 0 88 82" version="1.1" xmlns="http://www.w3.org/2000/svg" xmlns:xlink="http://www.w3.org/1999/xlink" xmlns:sketch="http://www.bohemiancoding.com/sketch/ns">
    <!-- Generator: Sketch 3.3.2 (12043) - http://www.bohemiancoding.com/sketch -->
    <title>noun_844567_cc</title>
    <desc>Created with Sketch.</desc>
    <defs></defs>
    <g id="Page-1" stroke="none" stroke-width="1" fill="none" fill-rule="evenodd" sketch:type="MSPage">
        <g id="noun_844567_cc" sketch:type="MSLayerGroup" transform="translate(-1.000000, -1.000000)" fill="#000000">
            <g id="Group" transform="translate(0.000000, 0.637820)" sketch:type="MSShapeGroup">
                <g transform="translate(0.992127, 0.330680)" id="Shape">
                    <path d="M58.996062,0.03543307 L25.901575,9.7440943 L57.295275,44.8937 C67.783464,40.960629 77.846456,36.425196 88.015747,32.066928 L58.996062,0.03543307 Z M24.271653,10.948819 L0,41.102361 L7.015748,41.102361 L7.015748,73.133857 L21.011811,76.110235 L21.011811,58.110235 C21.011811,57.118109 21.862204,56.161416 22.889764,56.125983 C26.751968,56.515747 30.685039,57.118109 34.582677,57.649605 C35.53937,57.755904 36.318897,58.641731 36.35433,59.633857 L36.35433,79.334644 L49.03937,82.027557 L49.00394,38.65748 L24.271653,10.948819 Z M80.999999,37.417322 L57.366141,47.019684 C57.01181,47.161416 56.515747,47.055114 56.267716,46.771653 L50.988188,40.85433 L51.023618,81.779526 L80.999996,63.106298 L80.999999,37.417322 Z M25.015748,60.413385 L25.015748,76.960628 L32.350393,78.48425 L32.350393,61.370077 L25.015748,60.413385 Z M27,67.145668 C27.566929,67.145668 27.992126,67.570865 27.992126,68.137794 C27.992126,68.66929 27.566929,69.12992 27,69.12992 C26.433071,69.12992 26.007874,68.66929 26.007874,68.137794 C26.007874,67.570865 26.433071,67.145668 27,67.145668 L27,67.145668 Z"></path>
                </g>
            </g>
        </g>
    </g>
</svg>